<svg xmlns="http://www.w3.org/2000/svg" width="800" height="800" viewBox="0 0 800 800">
  <defs>
    <linearGradient id="bg" x1="0%" y1="0%" x2="100%" y2="100%">
      <stop offset="0%" style="stop-color:#1a0533"/>
      <stop offset="100%" style="stop-color:#2d1457"/>
    </linearGradient>
    <linearGradient id="badge" x1="0%" y1="0%" x2="100%" y2="0%">
      <stop offset="0%" style="stop-color:#a855f7"/>
      <stop offset="100%" style="stop-color:#ec4899"/>
    </linearGradient>
    <linearGradient id="glow" x1="0%" y1="0%" x2="100%" y2="100%">
      <stop offset="0%" style="stop-color:#a855f7" stop-opacity="0.2"/>
      <stop offset="100%" style="stop-color:#ec4899" stop-opacity="0.1"/>
    </linearGradient>
  </defs>

  <rect width="800" height="800" fill="url(#bg)" rx="32"/>

  <line x1="0" y1="266" x2="800" y2="266" stroke="#ffffff" stroke-opacity="0.04" stroke-width="1"/>
  <line x1="0" y1="533" x2="800" y2="533" stroke="#ffffff" stroke-opacity="0.04" stroke-width="1"/>
  <line x1="266" y1="0" x2="266" y2="800" stroke="#ffffff" stroke-opacity="0.04" stroke-width="1"/>
  <line x1="533" y1="0" x2="533" y2="800" stroke="#ffffff" stroke-opacity="0.04" stroke-width="1"/>

  <circle cx="400" cy="260" r="240" fill="url(#glow)"/>
  <circle cx="400" cy="260" r="150" fill="#a855f7" fill-opacity="0.1"/>

  <rect x="560" y="0" width="240" height="240" fill="#a855f7" fill-opacity="0.15" transform="rotate(45 560 0)"/>
  <text x="690" y="58" font-family="system-ui, -apple-system, sans-serif" font-size="15" font-weight="700" fill="#e879f9" text-anchor="middle" transform="rotate(45 690 58)" letter-spacing="1">MOST POPULAR</text>

  <rect x="320" y="110" width="160" height="48" rx="24" fill="url(#badge)"/>
  <text x="400" y="142" font-family="system-ui, -apple-system, sans-serif" font-size="22" font-weight="700" fill="white" text-anchor="middle" letter-spacing="3">PRO</text>

  <polygon points="400,188 412,218 444,218 420,236 428,268 400,250 372,268 380,236 356,218 388,218"
    fill="#e879f9" fill-opacity="0.9"/>

  <text x="400" y="330" font-family="system-ui, -apple-system, sans-serif" font-size="72" font-weight="800" fill="white" text-anchor="middle">$29</text>
  <text x="400" y="368" font-family="system-ui, -apple-system, sans-serif" font-size="22" fill="#d8b4fe" text-anchor="middle">per month</text>

  <line x1="140" y1="410" x2="660" y2="410" stroke="#a855f7" stroke-opacity="0.4" stroke-width="1.5"/>

  <circle cx="174" cy="460" r="10" fill="#a855f7"/>
  <text x="174" y="464" font-family="system-ui, -apple-system, sans-serif" font-size="16" fill="white" text-anchor="middle">✓</text>
  <text x="204" y="466" font-family="system-ui, -apple-system, sans-serif" font-size="26" fill="#ede9fe">3,000 AI credits / month</text>

  <circle cx="174" cy="522" r="10" fill="#a855f7"/>
  <text x="174" y="526" font-family="system-ui, -apple-system, sans-serif" font-size="16" fill="white" text-anchor="middle">✓</text>
  <text x="204" y="528" font-family="system-ui, -apple-system, sans-serif" font-size="26" fill="#ede9fe">~600 LinkedIn posts</text>

  <circle cx="174" cy="584" r="10" fill="#a855f7"/>
  <text x="174" y="588" font-family="system-ui, -apple-system, sans-serif" font-size="16" fill="white" text-anchor="middle">✓</text>
  <text x="204" y="590" font-family="system-ui, -apple-system, sans-serif" font-size="26" fill="#ede9fe">5 LinkedIn accounts</text>

  <circle cx="174" cy="646" r="10" fill="#a855f7"/>
  <text x="174" y="650" font-family="system-ui, -apple-system, sans-serif" font-size="16" fill="white" text-anchor="middle">✓</text>
  <text x="204" y="652" font-family="system-ui, -apple-system, sans-serif" font-size="26" fill="#ede9fe">Claude AI (best quality)</text>

  <text x="400" y="750" font-family="system-ui, -apple-system, sans-serif" font-size="28" font-weight="700" fill="#c084fc" text-anchor="middle" letter-spacing="2">CRESCOVA</text>
</svg>
