<svg xmlns="http://www.w3.org/2000/svg" width="800" height="800" viewBox="0 0 800 800">
  <defs>
    <linearGradient id="bg" x1="0%" y1="0%" x2="100%" y2="100%">
      <stop offset="0%" style="stop-color:#1a0533"/>
      <stop offset="100%" style="stop-color:#2d1457"/>
    </linearGradient>
    <linearGradient id="badge" x1="0%" y1="0%" x2="100%" y2="0%">
      <stop offset="0%" style="stop-color:#a855f7"/>
      <stop offset="100%" style="stop-color:#ec4899"/>
    </linearGradient>
  </defs>

  <rect width="800" height="800" fill="url(#bg)" rx="32"/>
  <line x1="0" y1="266" x2="800" y2="266" stroke="#ffffff" stroke-opacity="0.04" stroke-width="1"/>
  <line x1="0" y1="533" x2="800" y2="533" stroke="#ffffff" stroke-opacity="0.04" stroke-width="1"/>
  <line x1="266" y1="0" x2="266" y2="800" stroke="#ffffff" stroke-opacity="0.04" stroke-width="1"/>
  <line x1="533" y1="0" x2="533" y2="800" stroke="#ffffff" stroke-opacity="0.04" stroke-width="1"/>
  <circle cx="400" cy="300" r="260" fill="#a855f7" fill-opacity="0.12"/>

  <!-- Most popular corner ribbon -->
  <rect x="556" y="0" width="244" height="244" fill="#a855f7" fill-opacity="0.15" transform="rotate(45 556 0)"/>
  <text x="692" y="56" font-family="system-ui,-apple-system,sans-serif" font-size="14" font-weight="700" fill="#e879f9" text-anchor="middle" transform="rotate(45 692 56)" letter-spacing="1">MOST POPULAR</text>

  <!-- Badge -->
  <rect x="320" y="90" width="160" height="52" rx="26" fill="url(#badge)"/>
  <text x="400" y="124" font-family="system-ui,-apple-system,sans-serif" font-size="24" font-weight="700" fill="white" text-anchor="middle" letter-spacing="4">PRO</text>

  <!-- Icon: star -->
  <polygon points="400,170 414,208 454,208 422,230 434,268 400,248 366,268 378,230 346,208 386,208" fill="#e879f9"/>

  <!-- Tagline -->
  <text x="400" y="298" font-family="system-ui,-apple-system,sans-serif" font-size="28" font-weight="600" fill="#d8b4fe" text-anchor="middle">Maximum power, best AI</text>

  <!-- Divider -->
  <line x1="120" y1="340" x2="680" y2="340" stroke="#a855f7" stroke-opacity="0.4" stroke-width="1.5"/>

  <!-- Features -->
  <rect x="120" y="368" width="24" height="24" rx="12" fill="#a855f7"/>
  <text x="132" y="385" font-family="system-ui,-apple-system,sans-serif" font-size="14" fill="white" text-anchor="middle">✓</text>
  <text x="164" y="386" font-family="system-ui,-apple-system,sans-serif" font-size="28" fill="#ede9fe">3,000 AI credits / month</text>

  <rect x="120" y="432" width="24" height="24" rx="12" fill="#a855f7"/>
  <text x="132" y="449" font-family="system-ui,-apple-system,sans-serif" font-size="14" fill="white" text-anchor="middle">✓</text>
  <text x="164" y="450" font-family="system-ui,-apple-system,sans-serif" font-size="28" fill="#ede9fe">~600 LinkedIn posts / month</text>

  <rect x="120" y="496" width="24" height="24" rx="12" fill="#a855f7"/>
  <text x="132" y="513" font-family="system-ui,-apple-system,sans-serif" font-size="14" fill="white" text-anchor="middle">✓</text>
  <text x="164" y="514" font-family="system-ui,-apple-system,sans-serif" font-size="28" fill="#ede9fe">5 LinkedIn accounts</text>

  <rect x="120" y="560" width="24" height="24" rx="12" fill="#a855f7"/>
  <text x="132" y="577" font-family="system-ui,-apple-system,sans-serif" font-size="14" fill="white" text-anchor="middle">✓</text>
  <text x="164" y="578" font-family="system-ui,-apple-system,sans-serif" font-size="28" fill="#ede9fe">Priority scheduling</text>

  <rect x="120" y="624" width="24" height="24" rx="12" fill="#a855f7"/>
  <text x="132" y="641" font-family="system-ui,-apple-system,sans-serif" font-size="14" fill="white" text-anchor="middle">✓</text>
  <text x="164" y="642" font-family="system-ui,-apple-system,sans-serif" font-size="28" fill="#ede9fe">Claude Sonnet (best quality)</text>

  <!-- Brand -->
  <text x="400" y="748" font-family="system-ui,-apple-system,sans-serif" font-size="26" font-weight="700" fill="#c084fc" text-anchor="middle" letter-spacing="3">CRESCOVA</text>
</svg>
